<mxfile host="app.diagrams.net" modified="2023-12-14T09:08:09.546Z" agent="Mozilla/5.0 (Windows NT 10.0; Win64; x64) AppleWebKit/537.36 (KHTML, like Gecko) Chrome/120.0.0.0 Safari/537.36" etag="Buw0D-wUphbDXGL3K_Lx" version="22.1.8" type="github">
  <diagram name="第 1 页" id="CrEvW9pFzBhu908rF6s5">
    <mxGraphModel dx="1434" dy="892" grid="1" gridSize="10" guides="1" tooltips="1" connect="1" arrows="1" fold="1" page="1" pageScale="1" pageWidth="827" pageHeight="1169" math="0" shadow="0">
      <root>
        <mxCell id="0" />
        <mxCell id="1" parent="0" />
        <mxCell id="GFlxzyXbFYNbmDDl-b3X-3" value="" style="edgeStyle=orthogonalEdgeStyle;rounded=0;orthogonalLoop=1;jettySize=auto;html=1;fontSize=16;" parent="1" source="GFlxzyXbFYNbmDDl-b3X-1" target="GFlxzyXbFYNbmDDl-b3X-2" edge="1">
          <mxGeometry relative="1" as="geometry" />
        </mxCell>
        <mxCell id="GFlxzyXbFYNbmDDl-b3X-1" value="项目启动" style="rounded=1;whiteSpace=wrap;html=1;fontSize=16;" parent="1" vertex="1">
          <mxGeometry x="60" y="23" width="120" height="60" as="geometry" />
        </mxCell>
        <mxCell id="GFlxzyXbFYNbmDDl-b3X-5" value="" style="edgeStyle=orthogonalEdgeStyle;rounded=0;orthogonalLoop=1;jettySize=auto;html=1;fontSize=16;" parent="1" source="GFlxzyXbFYNbmDDl-b3X-2" target="GFlxzyXbFYNbmDDl-b3X-4" edge="1">
          <mxGeometry relative="1" as="geometry" />
        </mxCell>
        <mxCell id="GFlxzyXbFYNbmDDl-b3X-2" value="系统立项" style="whiteSpace=wrap;html=1;rounded=1;fontSize=16;" parent="1" vertex="1">
          <mxGeometry x="60" y="163" width="120" height="60" as="geometry" />
        </mxCell>
        <mxCell id="GFlxzyXbFYNbmDDl-b3X-7" value="" style="edgeStyle=orthogonalEdgeStyle;rounded=0;orthogonalLoop=1;jettySize=auto;html=1;fontSize=16;" parent="1" source="GFlxzyXbFYNbmDDl-b3X-4" target="GFlxzyXbFYNbmDDl-b3X-6" edge="1">
          <mxGeometry relative="1" as="geometry" />
        </mxCell>
        <mxCell id="GFlxzyXbFYNbmDDl-b3X-4" value="需求调研" style="whiteSpace=wrap;html=1;rounded=1;fontSize=16;" parent="1" vertex="1">
          <mxGeometry x="60" y="303" width="120" height="60" as="geometry" />
        </mxCell>
        <mxCell id="GFlxzyXbFYNbmDDl-b3X-9" value="" style="edgeStyle=orthogonalEdgeStyle;rounded=0;orthogonalLoop=1;jettySize=auto;html=1;fontSize=16;" parent="1" source="GFlxzyXbFYNbmDDl-b3X-6" target="GFlxzyXbFYNbmDDl-b3X-8" edge="1">
          <mxGeometry relative="1" as="geometry" />
        </mxCell>
        <mxCell id="GFlxzyXbFYNbmDDl-b3X-6" value="设计" style="whiteSpace=wrap;html=1;rounded=1;fontSize=16;" parent="1" vertex="1">
          <mxGeometry x="60" y="443" width="120" height="60" as="geometry" />
        </mxCell>
        <mxCell id="GFlxzyXbFYNbmDDl-b3X-11" value="" style="edgeStyle=orthogonalEdgeStyle;rounded=0;orthogonalLoop=1;jettySize=auto;html=1;fontSize=16;" parent="1" source="GFlxzyXbFYNbmDDl-b3X-8" target="GFlxzyXbFYNbmDDl-b3X-10" edge="1">
          <mxGeometry relative="1" as="geometry" />
        </mxCell>
        <mxCell id="GFlxzyXbFYNbmDDl-b3X-8" value="开发" style="whiteSpace=wrap;html=1;rounded=1;fontSize=16;" parent="1" vertex="1">
          <mxGeometry x="60" y="583" width="120" height="60" as="geometry" />
        </mxCell>
        <mxCell id="GFlxzyXbFYNbmDDl-b3X-13" value="" style="edgeStyle=orthogonalEdgeStyle;rounded=0;orthogonalLoop=1;jettySize=auto;html=1;fontSize=16;" parent="1" source="GFlxzyXbFYNbmDDl-b3X-10" target="GFlxzyXbFYNbmDDl-b3X-12" edge="1">
          <mxGeometry relative="1" as="geometry" />
        </mxCell>
        <mxCell id="GFlxzyXbFYNbmDDl-b3X-10" value="测试" style="whiteSpace=wrap;html=1;rounded=1;fontSize=16;" parent="1" vertex="1">
          <mxGeometry x="60" y="723" width="120" height="60" as="geometry" />
        </mxCell>
        <mxCell id="GFlxzyXbFYNbmDDl-b3X-15" value="" style="edgeStyle=orthogonalEdgeStyle;rounded=0;orthogonalLoop=1;jettySize=auto;html=1;fontSize=16;" parent="1" source="GFlxzyXbFYNbmDDl-b3X-12" target="GFlxzyXbFYNbmDDl-b3X-14" edge="1">
          <mxGeometry relative="1" as="geometry" />
        </mxCell>
        <mxCell id="GFlxzyXbFYNbmDDl-b3X-12" value="部署" style="whiteSpace=wrap;html=1;rounded=1;fontSize=16;" parent="1" vertex="1">
          <mxGeometry x="60" y="863" width="120" height="60" as="geometry" />
        </mxCell>
        <mxCell id="GFlxzyXbFYNbmDDl-b3X-14" value="售后运维" style="whiteSpace=wrap;html=1;rounded=1;fontSize=16;" parent="1" vertex="1">
          <mxGeometry x="60" y="1003" width="120" height="60" as="geometry" />
        </mxCell>
        <mxCell id="GFlxzyXbFYNbmDDl-b3X-17" style="edgeStyle=orthogonalEdgeStyle;rounded=0;orthogonalLoop=1;jettySize=auto;html=1;exitX=1;exitY=0.5;exitDx=0;exitDy=0;entryX=0.1;entryY=0.5;entryDx=0;entryDy=0;entryPerimeter=0;fontSize=16;" parent="1" source="GFlxzyXbFYNbmDDl-b3X-2" target="GFlxzyXbFYNbmDDl-b3X-16" edge="1">
          <mxGeometry relative="1" as="geometry" />
        </mxCell>
        <mxCell id="GFlxzyXbFYNbmDDl-b3X-23" value="" style="group;fontSize=16;" parent="1" vertex="1" connectable="0">
          <mxGeometry x="350" y="40" width="400" height="218" as="geometry" />
        </mxCell>
        <mxCell id="GFlxzyXbFYNbmDDl-b3X-16" value="" style="shape=curlyBracket;whiteSpace=wrap;html=1;rounded=1;labelPosition=left;verticalLabelPosition=middle;align=right;verticalAlign=middle;fontSize=16;" parent="GFlxzyXbFYNbmDDl-b3X-23" vertex="1">
          <mxGeometry y="8.384615384615385" width="25" height="201.23076923076923" as="geometry" />
        </mxCell>
        <mxCell id="GFlxzyXbFYNbmDDl-b3X-21" value="&lt;p style=&quot;line-height: 100%;&quot;&gt;1、确定项目工作范围；&lt;/p&gt;&lt;p style=&quot;line-height: 100%;&quot;&gt;2、确定项目功能范围；&lt;/p&gt;&lt;p style=&quot;line-height: 100%;&quot;&gt;3、确定项目干系人及职责；&lt;/p&gt;&lt;p style=&quot;line-height: 100%;&quot;&gt;4、确定项目开发周期，制定项目里程碑；&lt;/p&gt;&lt;p style=&quot;line-height: 100%;&quot;&gt;5、确定项目绩效系数；&lt;/p&gt;&lt;p style=&quot;line-height: 100%;&quot;&gt;6、项目立项书；&lt;/p&gt;" style="text;html=1;strokeColor=none;fillColor=none;align=left;verticalAlign=middle;whiteSpace=wrap;rounded=0;horizontal=1;fontSize=16;" parent="GFlxzyXbFYNbmDDl-b3X-23" vertex="1">
          <mxGeometry x="50" width="350" height="218" as="geometry" />
        </mxCell>
        <mxCell id="GFlxzyXbFYNbmDDl-b3X-26" style="edgeStyle=orthogonalEdgeStyle;rounded=0;orthogonalLoop=1;jettySize=auto;html=1;entryX=0.1;entryY=0.5;entryDx=0;entryDy=0;entryPerimeter=0;fontSize=16;" parent="1" source="GFlxzyXbFYNbmDDl-b3X-4" target="HhBOS2dgm90hjr-vvZMC-8" edge="1">
          <mxGeometry relative="1" as="geometry">
            <mxPoint x="352.96000000000004" y="333" as="targetPoint" />
          </mxGeometry>
        </mxCell>
        <mxCell id="GFlxzyXbFYNbmDDl-b3X-29" value="" style="group;fontSize=16;" parent="1" vertex="1" connectable="0">
          <mxGeometry x="360" y="434.5" width="250" height="77" as="geometry" />
        </mxCell>
        <mxCell id="GFlxzyXbFYNbmDDl-b3X-30" value="" style="shape=curlyBracket;whiteSpace=wrap;html=1;rounded=1;labelPosition=left;verticalLabelPosition=middle;align=right;verticalAlign=middle;fontSize=16;" parent="GFlxzyXbFYNbmDDl-b3X-29" vertex="1">
          <mxGeometry width="20" height="77" as="geometry" />
        </mxCell>
        <mxCell id="GFlxzyXbFYNbmDDl-b3X-31" value="1、原型设计；&lt;br style=&quot;font-size: 16px;&quot;&gt;2、UI设计" style="text;html=1;strokeColor=none;fillColor=none;align=left;verticalAlign=middle;whiteSpace=wrap;rounded=0;fontSize=16;" parent="GFlxzyXbFYNbmDDl-b3X-29" vertex="1">
          <mxGeometry x="40" width="210" height="77" as="geometry" />
        </mxCell>
        <mxCell id="GFlxzyXbFYNbmDDl-b3X-32" style="edgeStyle=orthogonalEdgeStyle;rounded=0;orthogonalLoop=1;jettySize=auto;html=1;entryX=0.1;entryY=0.5;entryDx=0;entryDy=0;entryPerimeter=0;fontSize=16;" parent="1" source="GFlxzyXbFYNbmDDl-b3X-6" target="GFlxzyXbFYNbmDDl-b3X-30" edge="1">
          <mxGeometry relative="1" as="geometry" />
        </mxCell>
        <mxCell id="GFlxzyXbFYNbmDDl-b3X-33" value="" style="group;fontSize=16;verticalAlign=middle;" parent="1" vertex="1" connectable="0">
          <mxGeometry x="350" y="569.5" width="250" height="87" as="geometry" />
        </mxCell>
        <mxCell id="GFlxzyXbFYNbmDDl-b3X-34" value="" style="shape=curlyBracket;whiteSpace=wrap;html=1;rounded=1;labelPosition=left;verticalLabelPosition=middle;align=right;verticalAlign=middle;fontSize=16;" parent="GFlxzyXbFYNbmDDl-b3X-33" vertex="1">
          <mxGeometry width="20" height="87" as="geometry" />
        </mxCell>
        <mxCell id="GFlxzyXbFYNbmDDl-b3X-35" value="1、服务接口开发；&lt;br style=&quot;font-size: 16px;&quot;&gt;2、WEB开发；&lt;br style=&quot;font-size: 16px;&quot;&gt;3、数据库开发；" style="text;html=1;strokeColor=none;fillColor=none;align=left;verticalAlign=middle;whiteSpace=wrap;rounded=0;fontSize=16;" parent="GFlxzyXbFYNbmDDl-b3X-33" vertex="1">
          <mxGeometry x="40" width="210" height="87" as="geometry" />
        </mxCell>
        <mxCell id="GFlxzyXbFYNbmDDl-b3X-36" style="edgeStyle=orthogonalEdgeStyle;rounded=0;orthogonalLoop=1;jettySize=auto;html=1;entryX=0.1;entryY=0.5;entryDx=0;entryDy=0;entryPerimeter=0;fontSize=16;" parent="1" source="GFlxzyXbFYNbmDDl-b3X-8" target="GFlxzyXbFYNbmDDl-b3X-34" edge="1">
          <mxGeometry relative="1" as="geometry" />
        </mxCell>
        <mxCell id="GFlxzyXbFYNbmDDl-b3X-37" value="" style="group;fontSize=16;" parent="1" vertex="1" connectable="0">
          <mxGeometry x="350" y="704.5" width="250" height="97" as="geometry" />
        </mxCell>
        <mxCell id="GFlxzyXbFYNbmDDl-b3X-38" value="" style="shape=curlyBracket;whiteSpace=wrap;html=1;rounded=1;labelPosition=left;verticalLabelPosition=middle;align=right;verticalAlign=middle;fontSize=16;" parent="GFlxzyXbFYNbmDDl-b3X-37" vertex="1">
          <mxGeometry width="20" height="97" as="geometry" />
        </mxCell>
        <mxCell id="GFlxzyXbFYNbmDDl-b3X-39" value="1、功能测试；&lt;br style=&quot;font-size: 16px;&quot;&gt;2、性能测试；&lt;br style=&quot;font-size: 16px;&quot;&gt;3、安全测试；&lt;br style=&quot;font-size: 16px;&quot;&gt;4、测试报告；" style="text;html=1;strokeColor=none;fillColor=none;align=left;verticalAlign=middle;whiteSpace=wrap;rounded=0;fontSize=16;" parent="GFlxzyXbFYNbmDDl-b3X-37" vertex="1">
          <mxGeometry x="40" width="210" height="97" as="geometry" />
        </mxCell>
        <mxCell id="GFlxzyXbFYNbmDDl-b3X-40" style="edgeStyle=orthogonalEdgeStyle;rounded=0;orthogonalLoop=1;jettySize=auto;html=1;entryX=0.1;entryY=0.5;entryDx=0;entryDy=0;entryPerimeter=0;fontSize=16;" parent="1" source="GFlxzyXbFYNbmDDl-b3X-10" target="GFlxzyXbFYNbmDDl-b3X-38" edge="1">
          <mxGeometry relative="1" as="geometry" />
        </mxCell>
        <mxCell id="GFlxzyXbFYNbmDDl-b3X-41" value="" style="group;fontSize=16;" parent="1" vertex="1" connectable="0">
          <mxGeometry x="350" y="855" width="250" height="77" as="geometry" />
        </mxCell>
        <mxCell id="GFlxzyXbFYNbmDDl-b3X-42" value="" style="shape=curlyBracket;whiteSpace=wrap;html=1;rounded=1;labelPosition=left;verticalLabelPosition=middle;align=right;verticalAlign=middle;fontSize=16;" parent="GFlxzyXbFYNbmDDl-b3X-41" vertex="1">
          <mxGeometry width="20" height="77" as="geometry" />
        </mxCell>
        <mxCell id="GFlxzyXbFYNbmDDl-b3X-43" value="1、系统部署架构图；&lt;br style=&quot;font-size: 16px;&quot;&gt;2、部署运维手册；" style="text;html=1;strokeColor=none;fillColor=none;align=left;verticalAlign=middle;whiteSpace=wrap;rounded=0;fontSize=16;" parent="GFlxzyXbFYNbmDDl-b3X-41" vertex="1">
          <mxGeometry x="40" width="210" height="77" as="geometry" />
        </mxCell>
        <mxCell id="GFlxzyXbFYNbmDDl-b3X-44" style="edgeStyle=orthogonalEdgeStyle;rounded=0;orthogonalLoop=1;jettySize=auto;html=1;entryX=0.1;entryY=0.5;entryDx=0;entryDy=0;entryPerimeter=0;fontSize=16;" parent="1" source="GFlxzyXbFYNbmDDl-b3X-12" target="GFlxzyXbFYNbmDDl-b3X-42" edge="1">
          <mxGeometry relative="1" as="geometry" />
        </mxCell>
        <mxCell id="HhBOS2dgm90hjr-vvZMC-1" value="" style="group;fontSize=16;" vertex="1" connectable="0" parent="1">
          <mxGeometry x="350" y="991" width="250" height="83" as="geometry" />
        </mxCell>
        <mxCell id="HhBOS2dgm90hjr-vvZMC-2" value="" style="shape=curlyBracket;whiteSpace=wrap;html=1;rounded=1;labelPosition=left;verticalLabelPosition=middle;align=right;verticalAlign=middle;fontSize=16;" vertex="1" parent="HhBOS2dgm90hjr-vvZMC-1">
          <mxGeometry width="20" height="83" as="geometry" />
        </mxCell>
        <mxCell id="HhBOS2dgm90hjr-vvZMC-3" value="1、系统运维；&lt;br style=&quot;font-size: 16px;&quot;&gt;2、问题记录解决；" style="text;html=1;strokeColor=none;fillColor=none;align=left;verticalAlign=middle;whiteSpace=wrap;rounded=0;fontSize=16;" vertex="1" parent="HhBOS2dgm90hjr-vvZMC-1">
          <mxGeometry x="40" width="210" height="83" as="geometry" />
        </mxCell>
        <mxCell id="HhBOS2dgm90hjr-vvZMC-4" style="edgeStyle=orthogonalEdgeStyle;rounded=0;orthogonalLoop=1;jettySize=auto;html=1;entryX=0.1;entryY=0.5;entryDx=0;entryDy=0;entryPerimeter=0;fontSize=16;" edge="1" parent="1" source="GFlxzyXbFYNbmDDl-b3X-14" target="HhBOS2dgm90hjr-vvZMC-2">
          <mxGeometry relative="1" as="geometry" />
        </mxCell>
        <mxCell id="HhBOS2dgm90hjr-vvZMC-7" value="" style="group;fontSize=16;" vertex="1" connectable="0" parent="1">
          <mxGeometry x="350" y="283" width="400" height="100" as="geometry" />
        </mxCell>
        <mxCell id="HhBOS2dgm90hjr-vvZMC-8" value="" style="shape=curlyBracket;whiteSpace=wrap;html=1;rounded=1;labelPosition=left;verticalLabelPosition=middle;align=right;verticalAlign=middle;fontSize=16;" vertex="1" parent="HhBOS2dgm90hjr-vvZMC-7">
          <mxGeometry y="3.8461538461538467" width="25" height="92.3076923076923" as="geometry" />
        </mxCell>
        <mxCell id="HhBOS2dgm90hjr-vvZMC-9" value="&lt;p style=&quot;line-height: 100%;&quot;&gt;1、用户需求规格说明书；&lt;/p&gt;&lt;p style=&quot;line-height: 100%;&quot;&gt;2、功能分解文档；&lt;/p&gt;" style="text;html=1;strokeColor=none;fillColor=none;align=left;verticalAlign=middle;whiteSpace=wrap;rounded=0;horizontal=1;fontSize=16;" vertex="1" parent="HhBOS2dgm90hjr-vvZMC-7">
          <mxGeometry x="50" width="350" height="100" as="geometry" />
        </mxCell>
        <mxCell id="HhBOS2dgm90hjr-vvZMC-19" value="" style="group;fontSize=16;" vertex="1" connectable="0" parent="1">
          <mxGeometry x="710" y="360" width="400" height="120" as="geometry" />
        </mxCell>
        <mxCell id="HhBOS2dgm90hjr-vvZMC-20" value="" style="shape=curlyBracket;whiteSpace=wrap;html=1;rounded=1;labelPosition=left;verticalLabelPosition=middle;align=right;verticalAlign=middle;fontSize=16;" vertex="1" parent="HhBOS2dgm90hjr-vvZMC-19">
          <mxGeometry y="4.615384615384615" width="25" height="110.76923076923075" as="geometry" />
        </mxCell>
        <mxCell id="HhBOS2dgm90hjr-vvZMC-21" value="&lt;p style=&quot;line-height: 100%;&quot;&gt;1、原型设计；&lt;/p&gt;&lt;p style=&quot;line-height: 100%;&quot;&gt;2、UI设计&lt;/p&gt;" style="text;html=1;strokeColor=none;fillColor=none;align=left;verticalAlign=middle;whiteSpace=wrap;rounded=0;horizontal=1;fontSize=16;" vertex="1" parent="HhBOS2dgm90hjr-vvZMC-19">
          <mxGeometry x="50" width="350" height="120" as="geometry" />
        </mxCell>
        <mxCell id="HhBOS2dgm90hjr-vvZMC-22" value="" style="group;fontSize=16;" vertex="1" connectable="0" parent="1">
          <mxGeometry x="720" y="540" width="400" height="218" as="geometry" />
        </mxCell>
        <mxCell id="HhBOS2dgm90hjr-vvZMC-23" value="" style="shape=curlyBracket;whiteSpace=wrap;html=1;rounded=1;labelPosition=left;verticalLabelPosition=middle;align=right;verticalAlign=middle;fontSize=16;" vertex="1" parent="HhBOS2dgm90hjr-vvZMC-22">
          <mxGeometry y="8.384615384615385" width="25" height="201.23076923076923" as="geometry" />
        </mxCell>
        <mxCell id="HhBOS2dgm90hjr-vvZMC-24" value="&lt;p style=&quot;line-height: 100%;&quot;&gt;1、原型设计；&lt;/p&gt;&lt;p style=&quot;line-height: 100%;&quot;&gt;2、UI设计&lt;/p&gt;" style="text;html=1;strokeColor=none;fillColor=none;align=left;verticalAlign=middle;whiteSpace=wrap;rounded=0;horizontal=1;fontSize=16;" vertex="1" parent="HhBOS2dgm90hjr-vvZMC-22">
          <mxGeometry x="50" width="350" height="218" as="geometry" />
        </mxCell>
      </root>
    </mxGraphModel>
  </diagram>
</mxfile>
